<svg xmlns="http://www.w3.org/2000/svg" viewBox="0 0 595.28 595.28"><defs><style>.cls-1{font-size:139.95px;font-family:KINKYRegular, KINKY;}.cls-1,.cls-2{fill:#1d1d1b;}</style></defs><g id="Capa_2" data-name="Capa 2"><text class="cls-1" transform="translate(14.39 482.04)">FAT CAT</text><path class="cls-2" d="M303.41,391.53,266.76,384c10.75-12.3-1.11-20.47-5.26-32.17,4.13.67,6.95,1.08,9.74,1.61,12.5,2.37,19.34-3.75,19.06-16.15-.31-13.75-.44-27.56.52-41.26.73-10.51,2.81-20.23,15.61-24.85,4.3-1.55,5.64-11.53,8.14-17.73,1.31-3.22,2.2-6.61,3.75-11.39,8.86,13.73,4.52,31.54-7.36,37.88-9.34,5-13.24,15.08-9.21,27.36,1.46-3.81,2.62-6.14,3.26-8.61,4.66-18,19.94-27.09,38.32-22.71,12.72,3,25.44,6.14,38.26,8.72,2.68.54,5.8-1.09,8.72-1.72-.93-3.26-1.11-7.05-3-9.64-2.25-3.13-6.34-4.87-8.89-7.85a10.86,10.86,0,0,1,6.14-17.6c7.75-1.6,15.53-3,24.69-4.82-3,8.53-6.93,16.53-8.25,24.94-.67,4.21,2.45,10,5.56,13.63,8,9.34,9.3,18.33,4,29.54a259.09,259.09,0,0,0-11.65,29.46c-2.86,8.63-6.69,15.15-17.42,15.07l11.39,4.58-.49,1.14-38.23-5.35,0-1.52,15.27-1.41-27.4-6-29,12.69c1.07-8.34,1.75-13.67,2.69-21-3.85,1.82-7.5,2.47-9.45,4.65-7.88,8.84-15.21,18.17-22.8,27.26-5.7,6.83-1.82,10.69,4.43,13.08,5.21,2,10.79,3,16.21,4.44C303.86,389.32,303.63,390.43,303.41,391.53ZM316.22,309c1,10,4.44,12.24,12.52,7.85,12.15-6.6,23.89-14,35.8-21l-1.2-3.27c-3.73,1.28-8.57,1.51-11,4C342.52,306.79,330.7,310.37,316.22,309Z"/><path class="cls-2" d="M239.28,185.22l-16.92,9.29v6c-20.69,1.75-79.05-60.61-80.49-87.4,20,14.72,43.84,21.63,57.53,42.86.78,1.21,1.65,2.75,2.84,3.23,10.95,4.41,22.28,8,32.85,13.17,4.8,2.34,9.95,7,11.75,11.78,3.61,9.68,4.16,20,13.8,27.31,5.57,4.23,6.34,12.39-2,21.13C251.48,215.11,245.08,199.44,239.28,185.22Z"/><path class="cls-2" d="M350.17,216.86,372,196.49l-7.38-4c15.48-9.1,29.79-17.83,44.4-26,14.32-8,28.95-15.52,44.44-22.63-9.52,17.66-26.26,31.1-32.79,52.3l-21.23-2.82,19.4-16.76-1.3-1.83a48.92,48.92,0,0,0-5.94,3.19c-12,8.71-24.26,17.19-35.84,26.46-4.14,3.31-6,9.41-10.16,12.76-3.31,2.7-8.44,3.18-12.75,4.65Z"/><path class="cls-2" d="M244.81,321.28l9.86-16.11,5.12,2.83c-.91,5.49-.11,12.52-3.25,16-2.89,3.24-10,3.16-15.29,3.72-4.22.44-8.64-1-12.84-.53-16.72,1.91-27.67-10.64-21.7-26,.71-1.83,7.85-3.46,9.89-2.07C225.66,305.28,233.94,312.56,244.81,321.28Z"/><path class="cls-2" d="M278.16,283.69V216.84l10-7.5c1.94,10.11,4.56,21.34,6,32.73.62,4.74-.75,9.93-2.06,14.68a82.91,82.91,0,0,1-5.95,15.06C284.28,275.62,281.42,279,278.16,283.69Z"/><path class="cls-2" d="M219.13,270c14-2,26.55-3.07,34.89,12.08,6.15,11.15,1.5,20.26-11.14,21.24C224.46,304.72,216.6,292.16,219.13,270Zm3.69,1.64c-2.48,14.66,2.86,24.45,12.73,25.21,4.25.34,9-3,13.1-5.37.86-.49.12-3.8.11-5.81l-12.12.69c-.69,0-1.38.12-1.93.16C231.23,282.15,227.81,277.88,222.82,271.62Z"/><path class="cls-2" d="M303,259.62c-2.31-17.4,5.39-30.68,14.64-43.32,1.45-2,3-4.63,5.11-5.29,7.94-2.56,11.71-7.71,12.62-15.86.24-2.23,2.85-4.19,4.38-6.27l3.89,2.06c-5,9.88-7.86,22.05-15.48,29.08-10,9.2-18.55,17.88-21.3,31.45C306.29,254.33,304.33,256.91,303,259.62Z"/><path class="cls-2" d="M308.66,202.66c9.1,14.16-9,15.25-10.26,26.4C292,215.23,292,215.23,308.66,202.66Z"/><path class="cls-2" d="M255.5,247.42c-.45,9.64-.77,16.55-1.15,24.48C245.43,263.63,245.46,258.36,255.5,247.42Z"/><path class="cls-2" d="M269.69,257.55l-6-22.75,5.21-1.38,6,22.77Z"/><path class="cls-2" d="M382.23,220.88l19.25-8.52,2.12,4.95-19.31,7.45Z"/></g></svg>